<mxfile host="Electron" modified="2023-08-09T05:01:52.596Z" agent="Mozilla/5.0 (Windows NT 10.0; Win64; x64) AppleWebKit/537.36 (KHTML, like Gecko) draw.io/21.6.5 Chrome/114.0.5735.243 Electron/25.3.1 Safari/537.36" etag="iCT9iwS0UbKC00LU4c-w" version="21.6.5" type="device">
  <diagram name="PÃ¡gina-1" id="JSFB6g0oqeJpVyv11wbm">
    <mxGraphModel dx="880" dy="532" grid="1" gridSize="10" guides="1" tooltips="1" connect="1" arrows="1" fold="1" page="1" pageScale="1" pageWidth="827" pageHeight="1169" math="0" shadow="0">
      <root>
        <mxCell id="0" />
        <mxCell id="1" parent="0" />
        <mxCell id="CVNWz_M8U9r9p2cCaFba-1" value="seccion" style="rounded=0;whiteSpace=wrap;html=1;" vertex="1" parent="1">
          <mxGeometry x="297.5" y="100" width="65" height="30" as="geometry" />
        </mxCell>
        <mxCell id="CVNWz_M8U9r9p2cCaFba-4" value="Docente" style="rounded=0;whiteSpace=wrap;html=1;" vertex="1" parent="1">
          <mxGeometry x="580" y="151.25" width="60" height="30" as="geometry" />
        </mxCell>
        <mxCell id="CVNWz_M8U9r9p2cCaFba-5" value="nombre_docente" style="ellipse;whiteSpace=wrap;html=1;" vertex="1" parent="1">
          <mxGeometry x="670" y="110" width="100" height="30" as="geometry" />
        </mxCell>
        <mxCell id="CVNWz_M8U9r9p2cCaFba-6" value="oficina" style="ellipse;whiteSpace=wrap;html=1;" vertex="1" parent="1">
          <mxGeometry x="670" y="160" width="80" height="30" as="geometry" />
        </mxCell>
        <mxCell id="CVNWz_M8U9r9p2cCaFba-7" value="id_docente" style="ellipse;whiteSpace=wrap;html=1;fontStyle=4;fillColor=#60a917;fontColor=#ffffff;strokeColor=#2D7600;" vertex="1" parent="1">
          <mxGeometry x="570" y="91.25" width="80" height="30" as="geometry" />
        </mxCell>
        <mxCell id="CVNWz_M8U9r9p2cCaFba-10" value="seccion" style="ellipse;whiteSpace=wrap;html=1;" vertex="1" parent="1">
          <mxGeometry x="295" y="40" width="70" height="30" as="geometry" />
        </mxCell>
        <mxCell id="CVNWz_M8U9r9p2cCaFba-11" value="id_seccion" style="ellipse;whiteSpace=wrap;html=1;fontStyle=4;fillColor=#60a917;fontColor=#ffffff;strokeColor=#2D7600;" vertex="1" parent="1">
          <mxGeometry x="190" y="40" width="90" height="30" as="geometry" />
        </mxCell>
        <mxCell id="CVNWz_M8U9r9p2cCaFba-15" value="Esta&lt;br&gt;N:M" style="rhombus;whiteSpace=wrap;html=1;" vertex="1" parent="1">
          <mxGeometry x="390" y="121.25" width="60" height="60" as="geometry" />
        </mxCell>
        <mxCell id="CVNWz_M8U9r9p2cCaFba-17" value="" style="endArrow=none;html=1;rounded=0;entryX=0.5;entryY=1;entryDx=0;entryDy=0;exitX=0;exitY=0.5;exitDx=0;exitDy=0;" edge="1" parent="1" source="CVNWz_M8U9r9p2cCaFba-15" target="CVNWz_M8U9r9p2cCaFba-1">
          <mxGeometry width="50" height="50" relative="1" as="geometry">
            <mxPoint x="480" y="341.25" as="sourcePoint" />
            <mxPoint x="530" y="291.25" as="targetPoint" />
            <Array as="points">
              <mxPoint x="330" y="151.25" />
            </Array>
          </mxGeometry>
        </mxCell>
        <mxCell id="CVNWz_M8U9r9p2cCaFba-18" value="" style="endArrow=none;html=1;rounded=0;entryX=0;entryY=0;entryDx=0;entryDy=0;exitX=1;exitY=0.5;exitDx=0;exitDy=0;" edge="1" parent="1" source="CVNWz_M8U9r9p2cCaFba-15" target="CVNWz_M8U9r9p2cCaFba-4">
          <mxGeometry width="50" height="50" relative="1" as="geometry">
            <mxPoint x="480" y="341.25" as="sourcePoint" />
            <mxPoint x="530" y="291.25" as="targetPoint" />
          </mxGeometry>
        </mxCell>
        <mxCell id="CVNWz_M8U9r9p2cCaFba-23" value="" style="endArrow=none;html=1;rounded=0;entryX=0;entryY=0.5;entryDx=0;entryDy=0;exitX=1;exitY=0.75;exitDx=0;exitDy=0;" edge="1" parent="1" source="CVNWz_M8U9r9p2cCaFba-4" target="CVNWz_M8U9r9p2cCaFba-6">
          <mxGeometry width="50" height="50" relative="1" as="geometry">
            <mxPoint x="740" y="223.75" as="sourcePoint" />
            <mxPoint x="770" y="225" as="targetPoint" />
          </mxGeometry>
        </mxCell>
        <mxCell id="CVNWz_M8U9r9p2cCaFba-24" value="" style="endArrow=none;html=1;rounded=0;entryX=0;entryY=0.5;entryDx=0;entryDy=0;exitX=1;exitY=0.25;exitDx=0;exitDy=0;" edge="1" parent="1" source="CVNWz_M8U9r9p2cCaFba-4" target="CVNWz_M8U9r9p2cCaFba-5">
          <mxGeometry width="50" height="50" relative="1" as="geometry">
            <mxPoint x="480" y="341.25" as="sourcePoint" />
            <mxPoint x="530" y="291.25" as="targetPoint" />
          </mxGeometry>
        </mxCell>
        <mxCell id="CVNWz_M8U9r9p2cCaFba-25" value="" style="endArrow=none;html=1;rounded=0;entryX=0.5;entryY=1;entryDx=0;entryDy=0;exitX=0.5;exitY=0;exitDx=0;exitDy=0;" edge="1" parent="1" source="CVNWz_M8U9r9p2cCaFba-1" target="CVNWz_M8U9r9p2cCaFba-10">
          <mxGeometry width="50" height="50" relative="1" as="geometry">
            <mxPoint x="480" y="341.25" as="sourcePoint" />
            <mxPoint x="530" y="291.25" as="targetPoint" />
          </mxGeometry>
        </mxCell>
        <mxCell id="CVNWz_M8U9r9p2cCaFba-26" value="" style="endArrow=none;html=1;rounded=0;entryX=0.5;entryY=1;entryDx=0;entryDy=0;exitX=0;exitY=0;exitDx=0;exitDy=0;" edge="1" parent="1" source="CVNWz_M8U9r9p2cCaFba-1" target="CVNWz_M8U9r9p2cCaFba-11">
          <mxGeometry width="50" height="50" relative="1" as="geometry">
            <mxPoint x="480" y="341.25" as="sourcePoint" />
            <mxPoint x="530" y="291.25" as="targetPoint" />
          </mxGeometry>
        </mxCell>
        <mxCell id="CVNWz_M8U9r9p2cCaFba-31" value="" style="endArrow=none;html=1;rounded=0;entryX=0.5;entryY=1;entryDx=0;entryDy=0;exitX=0.5;exitY=0;exitDx=0;exitDy=0;" edge="1" parent="1" source="CVNWz_M8U9r9p2cCaFba-4" target="CVNWz_M8U9r9p2cCaFba-7">
          <mxGeometry width="50" height="50" relative="1" as="geometry">
            <mxPoint x="390" y="300" as="sourcePoint" />
            <mxPoint x="440" y="250" as="targetPoint" />
          </mxGeometry>
        </mxCell>
        <mxCell id="CVNWz_M8U9r9p2cCaFba-34" value="Especialidad" style="rounded=0;whiteSpace=wrap;html=1;" vertex="1" parent="1">
          <mxGeometry x="300" y="365.5" width="80" height="29" as="geometry" />
        </mxCell>
        <mxCell id="CVNWz_M8U9r9p2cCaFba-35" value="especialidad" style="ellipse;whiteSpace=wrap;html=1;" vertex="1" parent="1">
          <mxGeometry x="180" y="385" width="85" height="20" as="geometry" />
        </mxCell>
        <mxCell id="CVNWz_M8U9r9p2cCaFba-36" value="id_especialidad" style="ellipse;whiteSpace=wrap;html=1;fillColor=#60a917;fontColor=#ffffff;strokeColor=#2D7600;fontStyle=4" vertex="1" parent="1">
          <mxGeometry x="170" y="355" width="105" height="20" as="geometry" />
        </mxCell>
        <mxCell id="CVNWz_M8U9r9p2cCaFba-37" value="Curso" style="rounded=0;whiteSpace=wrap;html=1;" vertex="1" parent="1">
          <mxGeometry x="275" y="235.5" width="60" height="29" as="geometry" />
        </mxCell>
        <mxCell id="CVNWz_M8U9r9p2cCaFba-38" value="curso" style="ellipse;whiteSpace=wrap;html=1;" vertex="1" parent="1">
          <mxGeometry x="180" y="255" width="60" height="20" as="geometry" />
        </mxCell>
        <mxCell id="CVNWz_M8U9r9p2cCaFba-39" value="id_curso" style="ellipse;whiteSpace=wrap;html=1;fillColor=#60a917;fontColor=#ffffff;strokeColor=#2D7600;fontStyle=4" vertex="1" parent="1">
          <mxGeometry x="180" y="225" width="70" height="20" as="geometry" />
        </mxCell>
        <mxCell id="CVNWz_M8U9r9p2cCaFba-40" value="estar&lt;br&gt;N:M" style="rhombus;whiteSpace=wrap;html=1;" vertex="1" parent="1">
          <mxGeometry x="375" y="220" width="60" height="60" as="geometry" />
        </mxCell>
        <mxCell id="CVNWz_M8U9r9p2cCaFba-41" value="estar&lt;br&gt;1:N" style="rhombus;whiteSpace=wrap;html=1;" vertex="1" parent="1">
          <mxGeometry x="400" y="350" width="60" height="60" as="geometry" />
        </mxCell>
        <mxCell id="CVNWz_M8U9r9p2cCaFba-42" value="" style="endArrow=none;html=1;rounded=0;entryX=0.5;entryY=1;entryDx=0;entryDy=0;exitX=0;exitY=0;exitDx=0;exitDy=0;" edge="1" parent="1" source="CVNWz_M8U9r9p2cCaFba-15" target="CVNWz_M8U9r9p2cCaFba-55">
          <mxGeometry width="50" height="50" relative="1" as="geometry">
            <mxPoint x="390" y="300" as="sourcePoint" />
            <mxPoint x="440" y="250" as="targetPoint" />
          </mxGeometry>
        </mxCell>
        <mxCell id="CVNWz_M8U9r9p2cCaFba-47" value="" style="endArrow=none;html=1;rounded=0;entryX=0;entryY=0.5;entryDx=0;entryDy=0;exitX=1;exitY=0.5;exitDx=0;exitDy=0;" edge="1" parent="1" source="CVNWz_M8U9r9p2cCaFba-37" target="CVNWz_M8U9r9p2cCaFba-40">
          <mxGeometry width="50" height="50" relative="1" as="geometry">
            <mxPoint x="445" y="249.75" as="sourcePoint" />
            <mxPoint x="495" y="199.75" as="targetPoint" />
          </mxGeometry>
        </mxCell>
        <mxCell id="CVNWz_M8U9r9p2cCaFba-48" value="" style="endArrow=none;html=1;rounded=0;entryX=1;entryY=0.5;entryDx=0;entryDy=0;exitX=0;exitY=0.5;exitDx=0;exitDy=0;" edge="1" parent="1" source="CVNWz_M8U9r9p2cCaFba-41" target="CVNWz_M8U9r9p2cCaFba-34">
          <mxGeometry width="50" height="50" relative="1" as="geometry">
            <mxPoint x="470" y="460" as="sourcePoint" />
            <mxPoint x="520" y="410" as="targetPoint" />
          </mxGeometry>
        </mxCell>
        <mxCell id="CVNWz_M8U9r9p2cCaFba-49" value="" style="endArrow=none;html=1;rounded=0;entryX=1;entryY=0.5;entryDx=0;entryDy=0;exitX=0;exitY=0.75;exitDx=0;exitDy=0;" edge="1" parent="1" source="CVNWz_M8U9r9p2cCaFba-37" target="CVNWz_M8U9r9p2cCaFba-38">
          <mxGeometry width="50" height="50" relative="1" as="geometry">
            <mxPoint x="510" y="249.75" as="sourcePoint" />
            <mxPoint x="560" y="199.75" as="targetPoint" />
          </mxGeometry>
        </mxCell>
        <mxCell id="CVNWz_M8U9r9p2cCaFba-50" value="" style="endArrow=none;html=1;rounded=0;entryX=1;entryY=0.5;entryDx=0;entryDy=0;exitX=0;exitY=0.25;exitDx=0;exitDy=0;" edge="1" parent="1" source="CVNWz_M8U9r9p2cCaFba-37" target="CVNWz_M8U9r9p2cCaFba-39">
          <mxGeometry width="50" height="50" relative="1" as="geometry">
            <mxPoint x="510" y="249.75" as="sourcePoint" />
            <mxPoint x="560" y="199.75" as="targetPoint" />
          </mxGeometry>
        </mxCell>
        <mxCell id="CVNWz_M8U9r9p2cCaFba-51" value="" style="endArrow=none;html=1;rounded=0;exitX=1;exitY=0.5;exitDx=0;exitDy=0;entryX=0;entryY=0.75;entryDx=0;entryDy=0;" edge="1" parent="1" source="CVNWz_M8U9r9p2cCaFba-35" target="CVNWz_M8U9r9p2cCaFba-34">
          <mxGeometry width="50" height="50" relative="1" as="geometry">
            <mxPoint x="535" y="460" as="sourcePoint" />
            <mxPoint x="585" y="410" as="targetPoint" />
          </mxGeometry>
        </mxCell>
        <mxCell id="CVNWz_M8U9r9p2cCaFba-52" value="" style="endArrow=none;html=1;rounded=0;entryX=1;entryY=0.5;entryDx=0;entryDy=0;exitX=0;exitY=0.25;exitDx=0;exitDy=0;" edge="1" parent="1" source="CVNWz_M8U9r9p2cCaFba-34" target="CVNWz_M8U9r9p2cCaFba-36">
          <mxGeometry width="50" height="50" relative="1" as="geometry">
            <mxPoint x="535" y="460" as="sourcePoint" />
            <mxPoint x="585" y="410" as="targetPoint" />
          </mxGeometry>
        </mxCell>
        <mxCell id="CVNWz_M8U9r9p2cCaFba-55" value="id" style="ellipse;whiteSpace=wrap;html=1;fillColor=#60a917;fontColor=#ffffff;strokeColor=#2D7600;fontStyle=4" vertex="1" parent="1">
          <mxGeometry x="384" y="70" width="30" height="20" as="geometry" />
        </mxCell>
        <mxCell id="CVNWz_M8U9r9p2cCaFba-56" value="id_docente_fk" style="ellipse;whiteSpace=wrap;html=1;" vertex="1" parent="1">
          <mxGeometry x="420" y="50" width="90" height="30" as="geometry" />
        </mxCell>
        <mxCell id="CVNWz_M8U9r9p2cCaFba-58" value="id_docente_fk" style="ellipse;whiteSpace=wrap;html=1;" vertex="1" parent="1">
          <mxGeometry x="240" y="290" width="90" height="30" as="geometry" />
        </mxCell>
        <mxCell id="CVNWz_M8U9r9p2cCaFba-61" value="id_seccion_fk" style="ellipse;whiteSpace=wrap;html=1;" vertex="1" parent="1">
          <mxGeometry x="460" y="90" width="100" height="30" as="geometry" />
        </mxCell>
        <mxCell id="CVNWz_M8U9r9p2cCaFba-62" value="" style="endArrow=none;html=1;rounded=0;entryX=0.25;entryY=1;entryDx=0;entryDy=0;exitX=0.5;exitY=0;exitDx=0;exitDy=0;" edge="1" parent="1" source="CVNWz_M8U9r9p2cCaFba-58" target="CVNWz_M8U9r9p2cCaFba-37">
          <mxGeometry width="50" height="50" relative="1" as="geometry">
            <mxPoint x="445" y="249.75" as="sourcePoint" />
            <mxPoint x="495" y="199.75" as="targetPoint" />
          </mxGeometry>
        </mxCell>
        <mxCell id="CVNWz_M8U9r9p2cCaFba-65" value="" style="endArrow=none;html=1;rounded=0;entryX=0;entryY=1;entryDx=0;entryDy=0;exitX=1;exitY=0;exitDx=0;exitDy=0;" edge="1" parent="1" source="CVNWz_M8U9r9p2cCaFba-15" target="CVNWz_M8U9r9p2cCaFba-61">
          <mxGeometry width="50" height="50" relative="1" as="geometry">
            <mxPoint x="390" y="300" as="sourcePoint" />
            <mxPoint x="440" y="250" as="targetPoint" />
          </mxGeometry>
        </mxCell>
        <mxCell id="CVNWz_M8U9r9p2cCaFba-66" value="" style="endArrow=none;html=1;rounded=0;entryX=0;entryY=1;entryDx=0;entryDy=0;exitX=0.5;exitY=0;exitDx=0;exitDy=0;" edge="1" parent="1" source="CVNWz_M8U9r9p2cCaFba-15" target="CVNWz_M8U9r9p2cCaFba-56">
          <mxGeometry width="50" height="50" relative="1" as="geometry">
            <mxPoint x="390" y="300" as="sourcePoint" />
            <mxPoint x="440" y="250" as="targetPoint" />
          </mxGeometry>
        </mxCell>
        <mxCell id="CVNWz_M8U9r9p2cCaFba-76" value="id_especialidad_fk" style="ellipse;whiteSpace=wrap;html=1;" vertex="1" parent="1">
          <mxGeometry x="644.5" y="405" width="113" height="30" as="geometry" />
        </mxCell>
        <mxCell id="CVNWz_M8U9r9p2cCaFba-77" value="Alumno" style="rounded=0;whiteSpace=wrap;html=1;" vertex="1" parent="1">
          <mxGeometry x="562.5" y="360.5" width="60" height="29" as="geometry" />
        </mxCell>
        <mxCell id="CVNWz_M8U9r9p2cCaFba-78" value="nombre_alumno" style="ellipse;whiteSpace=wrap;html=1;" vertex="1" parent="1">
          <mxGeometry x="647.5" y="380" width="110" height="20" as="geometry" />
        </mxCell>
        <mxCell id="CVNWz_M8U9r9p2cCaFba-79" value="cod_alumno" style="ellipse;whiteSpace=wrap;html=1;fillColor=#60a917;fontColor=#ffffff;strokeColor=#2D7600;fontStyle=4" vertex="1" parent="1">
          <mxGeometry x="647.5" y="350" width="80" height="20" as="geometry" />
        </mxCell>
        <mxCell id="CVNWz_M8U9r9p2cCaFba-81" value="" style="endArrow=none;html=1;rounded=0;entryX=0;entryY=0.5;entryDx=0;entryDy=0;exitX=1;exitY=0.75;exitDx=0;exitDy=0;" edge="1" parent="1" source="CVNWz_M8U9r9p2cCaFba-77" target="CVNWz_M8U9r9p2cCaFba-78">
          <mxGeometry width="50" height="50" relative="1" as="geometry">
            <mxPoint x="387.5" y="400" as="sourcePoint" />
            <mxPoint x="437.5" y="350" as="targetPoint" />
          </mxGeometry>
        </mxCell>
        <mxCell id="CVNWz_M8U9r9p2cCaFba-82" value="" style="endArrow=none;html=1;rounded=0;entryX=0;entryY=0.5;entryDx=0;entryDy=0;exitX=1;exitY=0.25;exitDx=0;exitDy=0;" edge="1" parent="1" source="CVNWz_M8U9r9p2cCaFba-77" target="CVNWz_M8U9r9p2cCaFba-79">
          <mxGeometry width="50" height="50" relative="1" as="geometry">
            <mxPoint x="387.5" y="400" as="sourcePoint" />
            <mxPoint x="437.5" y="350" as="targetPoint" />
          </mxGeometry>
        </mxCell>
        <mxCell id="CVNWz_M8U9r9p2cCaFba-83" value="" style="endArrow=none;html=1;rounded=0;entryX=0;entryY=0.5;entryDx=0;entryDy=0;exitX=0.5;exitY=1;exitDx=0;exitDy=0;" edge="1" parent="1" source="CVNWz_M8U9r9p2cCaFba-77" target="CVNWz_M8U9r9p2cCaFba-76">
          <mxGeometry width="50" height="50" relative="1" as="geometry">
            <mxPoint x="500" y="540" as="sourcePoint" />
            <mxPoint x="550" y="490" as="targetPoint" />
          </mxGeometry>
        </mxCell>
        <mxCell id="CVNWz_M8U9r9p2cCaFba-84" value="" style="endArrow=none;html=1;rounded=0;exitX=1;exitY=0.5;exitDx=0;exitDy=0;entryX=0;entryY=0.5;entryDx=0;entryDy=0;" edge="1" parent="1" source="CVNWz_M8U9r9p2cCaFba-41" target="CVNWz_M8U9r9p2cCaFba-77">
          <mxGeometry width="50" height="50" relative="1" as="geometry">
            <mxPoint x="500" y="370" as="sourcePoint" />
            <mxPoint x="550" y="320" as="targetPoint" />
          </mxGeometry>
        </mxCell>
        <mxCell id="CVNWz_M8U9r9p2cCaFba-85" value="" style="endArrow=none;html=1;rounded=0;exitX=0.5;exitY=1;exitDx=0;exitDy=0;entryX=0.25;entryY=0;entryDx=0;entryDy=0;" edge="1" parent="1" source="CVNWz_M8U9r9p2cCaFba-40" target="CVNWz_M8U9r9p2cCaFba-77">
          <mxGeometry width="50" height="50" relative="1" as="geometry">
            <mxPoint x="500" y="370" as="sourcePoint" />
            <mxPoint x="560" y="360" as="targetPoint" />
          </mxGeometry>
        </mxCell>
        <mxCell id="CVNWz_M8U9r9p2cCaFba-86" value="id_curso_fk" style="ellipse;whiteSpace=wrap;html=1;" vertex="1" parent="1">
          <mxGeometry x="465" y="240" width="85" height="20" as="geometry" />
        </mxCell>
        <mxCell id="CVNWz_M8U9r9p2cCaFba-87" value="id_alumno_fk" style="ellipse;whiteSpace=wrap;html=1;" vertex="1" parent="1">
          <mxGeometry x="459" y="275" width="110" height="20" as="geometry" />
        </mxCell>
        <mxCell id="CVNWz_M8U9r9p2cCaFba-88" value="" style="endArrow=none;html=1;rounded=0;entryX=1;entryY=1;entryDx=0;entryDy=0;exitX=0;exitY=0.5;exitDx=0;exitDy=0;" edge="1" parent="1" source="CVNWz_M8U9r9p2cCaFba-87" target="CVNWz_M8U9r9p2cCaFba-40">
          <mxGeometry width="50" height="50" relative="1" as="geometry">
            <mxPoint x="500" y="370" as="sourcePoint" />
            <mxPoint x="550" y="320" as="targetPoint" />
          </mxGeometry>
        </mxCell>
        <mxCell id="CVNWz_M8U9r9p2cCaFba-89" value="" style="endArrow=none;html=1;rounded=0;entryX=1;entryY=0.5;entryDx=0;entryDy=0;exitX=0;exitY=0.5;exitDx=0;exitDy=0;" edge="1" parent="1" source="CVNWz_M8U9r9p2cCaFba-86" target="CVNWz_M8U9r9p2cCaFba-40">
          <mxGeometry width="50" height="50" relative="1" as="geometry">
            <mxPoint x="500" y="370" as="sourcePoint" />
            <mxPoint x="550" y="320" as="targetPoint" />
          </mxGeometry>
        </mxCell>
        <mxCell id="CVNWz_M8U9r9p2cCaFba-90" value="enseÃ±ar&lt;br&gt;N:1" style="rhombus;whiteSpace=wrap;html=1;" vertex="1" parent="1">
          <mxGeometry x="450" y="165" width="60" height="60" as="geometry" />
        </mxCell>
        <mxCell id="CVNWz_M8U9r9p2cCaFba-91" value="" style="endArrow=none;html=1;rounded=0;entryX=0;entryY=0.5;entryDx=0;entryDy=0;exitX=1;exitY=0;exitDx=0;exitDy=0;" edge="1" parent="1" source="CVNWz_M8U9r9p2cCaFba-37" target="CVNWz_M8U9r9p2cCaFba-90">
          <mxGeometry width="50" height="50" relative="1" as="geometry">
            <mxPoint x="400" y="320" as="sourcePoint" />
            <mxPoint x="450" y="270" as="targetPoint" />
          </mxGeometry>
        </mxCell>
        <mxCell id="CVNWz_M8U9r9p2cCaFba-92" value="" style="endArrow=none;html=1;rounded=0;entryX=0;entryY=0.5;entryDx=0;entryDy=0;exitX=1;exitY=0.5;exitDx=0;exitDy=0;" edge="1" parent="1" source="CVNWz_M8U9r9p2cCaFba-90" target="CVNWz_M8U9r9p2cCaFba-4">
          <mxGeometry width="50" height="50" relative="1" as="geometry">
            <mxPoint x="400" y="320" as="sourcePoint" />
            <mxPoint x="450" y="270" as="targetPoint" />
          </mxGeometry>
        </mxCell>
      </root>
    </mxGraphModel>
  </diagram>
</mxfile>
